<svg width="100%" height="100%" xmlns="http://www.w3.org/2000/svg" viewBox="0 0 512 512">
  <rect width="100%" height="100%" fill="#f8f9fa"/>
  <path d="M346.5,161l-33-33H167v14.9l39.1,39.1L167,222.1v68.8l39.1,39.1L167,369.1V384h146.5l33-33v-61.2l-29-29,29-29V161z M312,369.1
    H182.9l34.1-34.1h61.1L312,369.1z M278.1,320h-44.4L216,302.1v-40.5L278.1,320z M182.9,222.1l34.1-34.1h61.1L312,222.1v17L233.7,178
    h-50.8V222.1z M312,318c-7.7,0-14-6.3-14-14s6.3-14,14-14s14,6.3,14,14S319.7,318,312,318z" fill="#6c757d"/>
</svg> 